<svg height="512pt" viewBox="0 -7 512.001 512" width="512pt" xmlns="http://www.w3.org/2000/svg"><path d="m290.535156 328.621094h-69.066406c0 106.316406-64.777344 160.738281-64.777344 160.738281h198.617188c0-.003906-64.773438-54.421875-64.773438-160.738281zm0 0" fill="#426175"/><path d="m368.902344 497.148438h-225.804688c-5.4375 0-9.839844-4.40625-9.839844-9.84375 0-17.320313 14.039063-31.363282 31.363282-31.363282h182.757812c17.324219 0 31.363282 14.042969 31.363282 31.363282 0 5.4375-4.40625 9.84375-9.839844 9.84375zm0 0" fill="#cdd6df"/><path d="m492.101562 389.621094h-472.203124c-10.992188 0-19.898438-8.910156-19.898438-19.898438v-349.824218c0-10.988282 8.90625-19.898438 19.898438-19.898438h472.203124c10.992188 0 19.898438 8.910156 19.898438 19.898438v349.824218c0 10.988282-8.910156 19.898438-19.898438 19.898438zm0 0" fill="#426175"/><path d="m492.101562 0h-55.339843c10.992187 0 19.898437 8.910156 19.898437 19.898438v349.824218c0 10.988282-8.90625 19.898438-19.898437 19.898438h55.339843c10.988282 0 19.898438-8.910156 19.898438-19.898438v-349.824218c0-10.988282-8.910156-19.898438-19.898438-19.898438zm0 0" fill="#2c4456"/><path d="m28.84375 29.875h454.3125v271.441406h-454.3125zm0 0" fill="#f2f2f2"/><path d="m28.84375 29.875h454.3125v50.5625h-454.3125zm0 0" fill="#46d1c0"/><path d="m0 332.21875v37.503906c0 10.988282 8.910156 19.898438 19.898438 19.898438h472.203124c10.992188 0 19.898438-8.910156 19.898438-19.898438v-37.503906zm0 0" fill="#cdd6df"/><path d="m512 332.21875h-55.339844v37.503906c0 10.988282-8.90625 19.898438-19.898437 19.898438h55.339843c10.988282 0 19.898438-8.910156 19.898438-19.898438zm0 0" fill="#abb2ba"/><path d="m144.863281 191.910156 43.152344-28.222656c.65625-.492188 1.640625-.65625 2.460937-.65625 3.449219 0 7.878907 3.609375 7.878907 8.203125 0 1.96875-.984375 3.773437-2.460938 4.757813l-34.457031 22.644531 34.457031 22.644531c1.476563.816406 2.460938 2.625 2.460938 4.757812 0 4.59375-4.429688 8.039063-7.878907 8.039063-.820312 0-1.804687-.164063-2.460937-.65625l-43.152344-28.222656c-2.460937-1.640625-3.609375-4.429688-3.609375-6.5625 0-2.132813 1.148438-5.085938 3.609375-6.726563zm0 0" fill="#fd715c"/><path d="m289.585938 123.980469c0 .984375-.164063 1.804687-.65625 2.625l-60.21875 120.105469c-.984376 1.96875-3.117188 3.117187-5.414063 3.117187-3.773437 0-6.398437-3.117187-6.398437-6.070313 0-.820312.164062-1.640624.492187-2.460937l60.382813-120.597656c.984374-2.132813 2.789062-2.953125 4.921874-2.953125 3.28125 0 6.890626 2.460937 6.890626 6.234375zm0 0" fill="#fd715c"/><path d="m361.453125 205.199219-43.152344 28.222656c-.65625.492187-1.476562.65625-2.296875.65625-3.609375 0-7.875-3.449219-7.875-8.042969 0-2.132812.980469-3.9375 2.296875-4.757812l34.617188-22.640625-34.617188-22.644531c-1.316406-.984376-2.296875-2.789063-2.296875-4.757813 0-4.59375 4.265625-8.203125 7.875-8.203125.820313 0 1.640625.164062 2.296875.65625l43.152344 28.21875c2.460937 1.640625 3.609375 4.597656 3.609375 6.726562 0 2.136719-.984375 4.925782-3.609375 6.566407zm0 0" fill="#fd715c"/><g fill="#f2f2f2"><path d="m356.496094 62.359375c-3.96875 0-7.199219-3.234375-7.199219-7.203125 0-3.972656 3.230469-7.203125 7.199219-7.203125 3.972656 0 7.203125 3.230469 7.203125 7.203125 0 3.96875-3.230469 7.203125-7.203125 7.203125zm0 0"/><path d="m395.960938 62.359375c-3.972657 0-7.203126-3.234375-7.203126-7.203125 0-3.972656 3.230469-7.203125 7.203126-7.203125 3.972656 0 7.203124 3.230469 7.203124 7.203125 0 3.96875-3.230468 7.203125-7.203124 7.203125zm0 0"/><path d="m435.425781 62.359375c-3.972656 0-7.203125-3.234375-7.203125-7.203125 0-3.972656 3.230469-7.203125 7.203125-7.203125 3.96875 0 7.199219 3.230469 7.199219 7.203125 0 3.96875-3.230469 7.203125-7.199219 7.203125zm0 0"/></g></svg>